<?xml version="1.0" encoding="UTF-8"?>
<svg id="Layer_1" data-name="Layer 1" xmlns="http://www.w3.org/2000/svg" xmlns:xlink="http://www.w3.org/1999/xlink" viewBox="0 0 697.96 103.46">
  <defs>
    <style>
      .cls-1 {
        fill: #61859d;
      }

      .cls-2 {
        fill: url(#radial-gradient);
      }

      .cls-3 {
        fill: url(#radial-gradient-2);
      }
    </style>
    <radialGradient id="radial-gradient" cx="-251.82" cy="258.55" fx="-251.82" fy="258.55" r=".52" gradientTransform="translate(21148.94 11820.02) rotate(-16.12) scale(65.54 -65.78) skewX(.13)" gradientUnits="userSpaceOnUse">
      <stop offset="0" stop-color="#3b5464" stop-opacity="0"/>
      <stop offset=".36" stop-color="#61859d" stop-opacity="0"/>
      <stop offset=".52" stop-color="#61859d"/>
      <stop offset=".71" stop-color="#61859d"/>
      <stop offset="1" stop-color="#61859d" stop-opacity="0"/>
    </radialGradient>
    <radialGradient id="radial-gradient-2" cx="-251.82" fx="-251.82" r=".52" gradientTransform="translate(20660.56 11820.02) rotate(-16.12) scale(65.54 -65.78) skewX(.13)" xlink:href="#radial-gradient"/>
  </defs>
  <g id="Group_394" data-name="Group 394">
    <path id="Path_158-3" data-name="Path 158-3" class="cls-1" d="M5.71,79.33c3.16,0,5.72-2.57,5.71-5.73,0-.03,0-.07,0-.1v-32.14c2.98-5.46,7.69-8.81,12.78-8.81,5.46,0,10.18,2.85,10.18,11.17v29.78c-.07,3.15,2.42,5.77,5.58,5.84,3.15.07,5.77-2.42,5.84-5.58,0-.09,0-.17,0-.26v-32.27c2.98-5.46,7.69-8.69,12.78-8.69,5.46,0,10.18,2.85,10.18,11.17v29.78c-.07,3.15,2.42,5.77,5.58,5.84,3.15.07,5.77-2.42,5.84-5.58,0-.09,0-.17,0-.26v-31.89c0-13.03-8.69-19.48-18.37-19.48-7.32,0-13.28,3.23-18.12,9.56-3.1-6.33-9.31-9.56-16.01-9.56s-12.04,2.98-16.26,8.31v-1.49c.06-3.16-2.45-5.77-5.61-5.83-.03,0-.07,0-.1,0C2.53,23.16-.02,25.77,0,28.95v44.55c-.02,3.18,2.53,5.78,5.71,5.83ZM168.15,79.33c3.15-.06,5.65-2.66,5.59-5.81,0,0,0-.01,0-.02V5.83c.06-3.16-2.45-5.77-5.61-5.83-.03,0-.07,0-.1,0-3.18.05-5.73,2.65-5.71,5.83v67.67c0,3.22,2.6,5.83,5.82,5.83,0,0,.01,0,.02,0ZM186.45,51.04c0,17.5,12.78,29.04,29.91,29.04,5.61.05,11.15-1.27,16.13-3.85,1.99-.79,3.32-2.7,3.35-4.84.04-2.56-1.99-4.67-4.55-4.72-.05,0-.11,0-.16,0-1.37.08-2.72.41-3.97.99-3.22,1.38-6.68,2.1-10.18,2.11-9.8,0-18.24-5.71-19.24-16.88h33.38c2.98,0,4.84-.25,5.96-1.74,1.09-1.22,1.63-2.84,1.49-4.47,0-12.91-9.43-24.45-24.7-24.45-15.88,0-27.42,12.41-27.42,28.79ZM198.24,44.96c1.74-8.07,7.45-13.16,15.51-13.16s14.15,6.08,14.27,13.15h-29.79ZM278.91,80.08c5.41.02,10.72-1.53,15.27-4.47,2.11-1.36,3.48-2.85,3.48-5.21.05-2.56-1.97-4.67-4.53-4.73-.15,0-.29,0-.44.01-1.26.04-2.5.38-3.6.99-2.91,1.88-6.33,2.83-9.8,2.73-9.93,0-17.5-7.07-17.5-18.12s7.94-18.37,17.5-18.37c2.98.1,5.91.86,8.56,2.23,1.28.77,2.73,1.19,4.22,1.24,2.7.05,4.93-2.1,4.97-4.8,0-.14,0-.28-.01-.41-.05-1.97-1.13-3.76-2.85-4.72-4.52-2.88-9.78-4.39-15.14-4.34-16.51,0-28.92,12.04-28.92,29.04,0,16.38,11.79,28.91,28.79,28.91h0ZM351.94,22.87c-3.16,0-5.72,2.57-5.71,5.73,0,.03,0,.07,0,.1v31.4c-3.35,5.96-8.93,9.56-14.89,9.56-6.83,0-11.54-4.1-11.54-11.67v-29.29c-.04-3.2-2.63-5.79-5.83-5.83-3.14.11-5.62,2.69-5.58,5.83v31.52c0,12.29,8.93,19.73,19.86,19.73,7.2,0,13.28-3.1,17.99-8.69v2.11c-.05,3.1,2.42,5.66,5.52,5.71.06,0,.12,0,.19,0,3.14,0,5.7-2.53,5.71-5.68,0-.01,0-.02,0-.03V28.7c.02-3.18-2.53-5.78-5.71-5.83h0ZM379.55,79.33c3.15-.06,5.65-2.66,5.59-5.81,0,0,0-.01,0-.02V5.83c.06-3.16-2.45-5.77-5.61-5.83-.03,0-.07,0-.1,0-3.18.05-5.73,2.65-5.71,5.83v67.67c0,3.22,2.6,5.83,5.82,5.83,0,0,.01,0,.02,0h0ZM437.06,79.33c3.03-.01,5.48-2.48,5.47-5.51,0-.07,0-.13,0-.2v-34.25c0-10.55-7.69-17.13-20.35-17.13-6.2,0-13.53,1.99-17.62,4.47-1.85.85-3.05,2.68-3.1,4.72-.03,2.58,2.04,4.69,4.61,4.72.08,0,.15,0,.23,0,1.47-.13,2.91-.55,4.22-1.24,3.29-1.58,6.9-2.38,10.55-2.36,6.7,0,10.42,2.61,10.42,8.56v4.59c-6.83.87-15.02,1.61-21.22,3.72-8.69,2.85-13.28,7.69-13.28,15.39,0,8.56,6.83,15.26,16.51,15.26,6.08,0,12.16-2.48,17.99-7.69v1.24c-.02,3.11,2.47,5.66,5.58,5.71h0ZM408.27,63.82c0-3.6,2.48-5.83,8.81-7.57,4.75-1.12,9.55-1.99,14.4-2.61v10.18c-4.59,4.1-10.42,6.58-15.02,6.58-4.96,0-8.19-2.73-8.19-6.58ZM463.68,79.33c3.16,0,5.72-2.57,5.71-5.73,0-.03,0-.07,0-.1v-30.03c4.59-7.57,10.92-9.31,16.88-9.31,3.25.04,5.91-2.56,5.96-5.8,0-.05,0-.1,0-.15,0-3.23-2.36-5.46-6.08-5.46-5.71,0-11.91,2.85-16.75,10.43v-4.22c.1-3.12-2.34-5.73-5.46-5.83-.08,0-.17,0-.25,0-3.16,0-5.72,2.57-5.71,5.73,0,.03,0,.07,0,.1v44.55c-.02,3.18,2.53,5.78,5.71,5.83ZM538.19,103.46c2.11,0,4.1-.99,5.59-4.22l29.1-67.82c.48-.92.73-1.94.74-2.98-.02-2.94-2.4-5.31-5.34-5.34-1.98,0-4.1.87-5.59,4.1-5.21,12.16-11.04,25.44-15.88,37.85-4.84-11.67-10.8-26.06-15.76-37.73-1.49-3.23-3.72-4.22-5.83-4.22-3.05-.03-5.54,2.41-5.59,5.46.05,1.07.3,2.12.74,3.1l20.1,45.55-6.89,17.8c-.49.96-.75,2.02-.74,3.1.06,2.93,2.42,5.28,5.34,5.34ZM692.25,22.86c-3.16,0-5.72,2.57-5.71,5.73,0,.03,0,.07,0,.1v31.4c-3.35,5.96-8.93,9.56-14.89,9.56-6.83,0-11.54-4.1-11.54-11.67v-29.29c-.04-3.2-2.63-5.79-5.83-5.83-3.14.11-5.62,2.69-5.59,5.83v31.52c0,12.29,8.94,19.73,19.86,19.73,7.2,0,13.28-3.1,17.99-8.69v2.11c-.05,3.1,2.42,5.66,5.52,5.71.06,0,.12,0,.19,0,3.14,0,5.7-2.53,5.71-5.68V28.7c.02-3.18-2.53-5.78-5.71-5.83h0Z"/>
    <path id="Path_169-3" data-name="Path 169-3" class="cls-2" d="M609.62,85.15c18.78,0,32.76-14.12,32.76-32.9s-13.98-32.9-32.76-32.9-32.76,13.98-32.76,32.9c0,18.78,14.12,32.9,32.76,32.9Z"/>
    <path id="Path_595" data-name="Path 595" class="cls-3" d="M121.23,85.15c18.78,0,32.76-14.12,32.76-32.9s-13.98-32.9-32.76-32.9-32.76,13.98-32.76,32.9c0,18.78,14.12,32.9,32.76,32.9Z"/>
  </g>
</svg>