<?xml version="1.0" encoding="UTF-8"?>
<svg id="Layer_1" data-name="Layer 1" xmlns="http://www.w3.org/2000/svg" viewBox="0 0 202.09 135.39">
  <defs>
    <style>
      .cls-1 {
        fill: #fff;
      }
    </style>
  </defs>
  <g id="Group_390" data-name="Group 390">
    <path id="Path_158-2" data-name="Path 158-2" class="cls-1" d="M10.24,97.97c5.67-.01,10.25-4.62,10.24-10.28,0-.06,0-.12,0-.18v-53.02c5.34-9.79,13.8-15.8,22.92-15.8,9.79,0,18.25,5.12,18.25,20.03v48.79c-.12,5.65,4.36,10.34,10.01,10.46,5.65.12,10.34-4.36,10.46-10.01,0-.15,0-.3,0-.45v-53.24c5.34-9.79,13.79-15.58,22.92-15.58,9.79,0,12.56,8.12,18.25,20.03l23.12,53.42c1.63,3.3,4.67,10.46,10.24,10.46,5.7-.09,10.27-4.76,10.24-10.46l-23.12-57.2C133.33,9.6,128.19,0,110.83,0c-13.13,0-23.81,5.79-32.49,17.14C72.78,5.79,61.65,0,49.63,0s-21.59,5.34-29.15,14.91v-2.67c.11-5.67-4.39-10.35-10.06-10.46-.06,0-.12,0-.18,0C4.53,1.87-.03,6.54,0,12.24v75.27c-.03,5.7,4.53,10.37,10.24,10.46Z"/>
    <path id="Path_530-2" data-name="Path 530-2" class="cls-1" d="M143.17,135.39c3.78,0,7.34-1.78,10.02-7.57L200.75,15.45c.86-1.65,1.32-3.48,1.34-5.34-.04-5.27-4.3-9.53-9.57-9.57-3.56,0-7.34,1.56-10.02,7.34-9.35,21.81-35.21,80.44-47.57,112.36-.88,1.72-1.34,3.63-1.33,5.56.12,5.23,4.33,9.45,9.57,9.57Z"/>
  </g>
</svg>